<svg width="20" height="20" viewBox="0 0 20 20" fill="none" xmlns="http://www.w3.org/2000/svg">
<path d="M0.718774 0.718652C1.07039 0.367144 1.54722 0.169678 2.0444 0.169678C2.54158 0.169678 3.01841 0.367144 3.37002 0.718652L10 7.34865L16.63 0.718652C16.9837 0.377106 17.4573 0.188116 17.9489 0.192388C18.4405 0.19666 18.9108 0.393852 19.2584 0.741493C19.6061 1.08913 19.8033 1.55941 19.8075 2.05103C19.8118 2.54264 19.6228 3.01627 19.2813 3.3699L12.6513 9.9999L19.2813 16.6299C19.6228 16.9835 19.8118 17.4572 19.8075 17.9488C19.8033 18.4404 19.6061 18.9107 19.2584 19.2583C18.9108 19.606 18.4405 19.8031 17.9489 19.8074C17.4573 19.8117 16.9837 19.6227 16.63 19.2812L10 12.6512L3.37002 19.2812C3.0164 19.6227 2.54277 19.8117 2.05115 19.8074C1.55953 19.8031 1.08925 19.606 0.741615 19.2583C0.393974 18.9107 0.196783 18.4404 0.192511 17.9488C0.188238 17.4572 0.377228 16.9835 0.718774 16.6299L7.34877 9.9999L0.718774 3.3699C0.367266 3.01829 0.1698 2.54146 0.1698 2.04428C0.1698 1.54709 0.367266 1.07027 0.718774 0.718652Z" fill="black"/>
</svg>
