<svg width="12" height="12" viewBox="0 0 12 12" fill="none" xmlns="http://www.w3.org/2000/svg">
<path d="M1 12C0.71667 12 0.479004 11.904 0.287004 11.712C0.0950036 11.52 -0.000663206 11.2827 3.4602e-06 11V1C3.4602e-06 0.71667 0.0960036 0.479004 0.288004 0.287004C0.480004 0.0950036 0.717337 -0.000663206 1 3.4602e-06C1.28334 3.4602e-06 1.521 0.0960036 1.713 0.288004C1.905 0.480004 2.00067 0.717337 2 1V11C2 11.2833 1.904 11.521 1.712 11.713C1.52 11.905 1.28267 12.0007 1 12ZM7.8 6L11.7 9.9C11.8833 10.0833 11.975 10.3167 11.975 10.6C11.975 10.8833 11.8833 11.1167 11.7 11.3C11.5167 11.4833 11.2833 11.575 11 11.575C10.7167 11.575 10.4833 11.4833 10.3 11.3L5.7 6.7C5.6 6.6 5.52934 6.49167 5.488 6.375C5.44667 6.25834 5.42567 6.13334 5.425 6C5.425 5.86667 5.446 5.74167 5.488 5.625C5.53 5.50834 5.60067 5.4 5.7 5.3L10.3 0.700003C10.4833 0.51667 10.7167 0.425004 11 0.425004C11.2833 0.425004 11.5167 0.51667 11.7 0.700003C11.8833 0.883337 11.975 1.11667 11.975 1.4C11.975 1.68334 11.8833 1.91667 11.7 2.1L7.8 6Z" fill="#1E1E1E"/>
</svg>
