<svg width="12" height="12" viewBox="0 0 12 12" fill="none" xmlns="http://www.w3.org/2000/svg">
<path d="M4.175 6L0.275 2.1C0.0916668 1.91667 0 1.68334 0 1.4C0 1.11667 0.0916668 0.883337 0.275 0.700003C0.458333 0.51667 0.691667 0.425004 0.975 0.425004C1.25833 0.425004 1.49167 0.51667 1.675 0.700003L6.275 5.3C6.375 5.4 6.446 5.50834 6.488 5.625C6.53 5.74167 6.55067 5.86667 6.55 6C6.55 6.13334 6.52933 6.25834 6.488 6.375C6.44667 6.49167 6.37567 6.6 6.275 6.7L1.675 11.3C1.49167 11.4833 1.25833 11.575 0.975 11.575C0.691667 11.575 0.458333 11.4833 0.275 11.3C0.0916668 11.1167 0 10.8833 0 10.6C0 10.3167 0.0916668 10.0833 0.275 9.9L4.175 6ZM10.975 3.4602e-06C11.2583 3.4602e-06 11.496 0.0960036 11.688 0.288004C11.88 0.480004 11.9757 0.717337 11.975 1V11C11.975 11.2833 11.879 11.521 11.687 11.713C11.495 11.905 11.2577 12.0007 10.975 12C10.6917 12 10.454 11.904 10.262 11.712C10.07 11.52 9.97433 11.2827 9.975 11V1C9.975 0.71667 10.071 0.479004 10.263 0.287004C10.455 0.0950036 10.6923 -0.000663206 10.975 3.4602e-06Z" fill="#1E1E1E"/>
</svg>
