<svg width="7" height="12" viewBox="0 0 7 12" fill="none" xmlns="http://www.w3.org/2000/svg">
<path d="M2.37505 5.57502L6.27505 9.47502C6.45838 9.65836 6.55005 9.89169 6.55005 10.175C6.55005 10.4584 6.45838 10.6917 6.27505 10.875C6.09172 11.0584 5.85838 11.15 5.57505 11.15C5.29172 11.15 5.05838 11.0584 4.87505 10.875L0.275049 6.27502C0.175049 6.17502 0.104049 6.06669 0.0620494 5.95002C0.0200494 5.83336 -0.000617552 5.70836 4.91142e-05 5.57502C4.91142e-05 5.44169 0.0207161 5.31669 0.0620494 5.20002C0.103383 5.08336 0.174382 4.97502 0.275049 4.87502L4.87505 0.275025C5.05838 0.091692 5.29172 2.38419e-05 5.57505 2.38419e-05C5.85838 2.38419e-05 6.09172 0.091692 6.27505 0.275025C6.45838 0.458359 6.55005 0.691691 6.55005 0.975024C6.55005 1.25836 6.45838 1.49169 6.27505 1.67502L2.37505 5.57502Z" fill="#1E1E1E"/>
</svg>
