<svg width="30" height="22" viewBox="0 0 30 22" fill="none" xmlns="http://www.w3.org/2000/svg">
<path d="M15 15C17.2091 15 19 13.2091 19 11C19 8.79086 17.2091 7 15 7C12.7909 7 11 8.79086 11 11C11 13.2091 12.7909 15 15 15Z" fill="#5E4731"/>
<path d="M29.94 10.66C28.7638 7.61765 26.722 4.98662 24.0668 3.09209C21.4116 1.19756 18.2595 0.122573 15 0C11.7405 0.122573 8.58839 1.19756 5.9332 3.09209C3.27802 4.98662 1.23616 7.61765 0.0600018 10.66C-0.0194309 10.8797 -0.0194309 11.1203 0.0600018 11.34C1.23616 14.3824 3.27802 17.0134 5.9332 18.9079C8.58839 20.8024 11.7405 21.8774 15 22C18.2595 21.8774 21.4116 20.8024 24.0668 18.9079C26.722 17.0134 28.7638 14.3824 29.94 11.34C30.0194 11.1203 30.0194 10.8797 29.94 10.66ZM15 17.5C13.7144 17.5 12.4577 17.1188 11.3888 16.4046C10.3199 15.6903 9.48675 14.6752 8.99479 13.4874C8.50282 12.2997 8.37409 10.9928 8.6249 9.73191C8.8757 8.47104 9.49477 7.31285 10.4038 6.40381C11.3128 5.49476 12.471 4.8757 13.7319 4.6249C14.9928 4.37409 16.2997 4.50281 17.4874 4.99478C18.6752 5.48675 19.6903 6.31987 20.4046 7.38879C21.1188 8.45771 21.5 9.71442 21.5 11C21.4974 12.7231 20.8117 14.3749 19.5933 15.5933C18.3749 16.8117 16.7231 17.4974 15 17.5Z" fill="#5E4731"/>
</svg>
